<?xml version="1.0" standalone="no"?>
<!DOCTYPE svg PUBLIC "-//W3C//DTD SVG 20010904//EN"
 "http://www.w3.org/TR/2001/REC-SVG-20010904/DTD/svg10.dtd">
<svg version="1.0" xmlns="http://www.w3.org/2000/svg"
 width="48.000000pt" height="48.000000pt" viewBox="0 0 48.000000 48.000000"
 preserveAspectRatio="xMidYMid meet">

<g transform="translate(0.000000,48.000000) scale(0.100000,-0.100000)"
fill="#000000" stroke="none">
<path d="M144 456 c-85 -40 -144 -127 -144 -216 0 -124 116 -240 240 -240 124
0 240 116 240 240 0 89 -59 176 -144 216 -66 31 -126 31 -192 0z m82 -152 c25
-43 28 -45 41 -28 19 26 16 34 -12 34 -14 0 -25 2 -25 4 0 2 -3 11 -6 20 -5
14 6 16 90 16 94 0 96 -1 86 -20 -7 -14 -21 -20 -43 -20 -30 0 -35 -5 -60 -55
-15 -30 -23 -55 -18 -55 10 0 51 -65 51 -81 0 -5 -34 -9 -76 -9 -42 0 -74 3
-72 8 2 4 15 30 29 57 l26 50 -22 23 -22 23 -46 -80 c-26 -45 -54 -81 -62 -81
-8 0 -15 5 -15 10 0 10 121 230 126 230 2 0 15 -21 30 -46z"/>
<path d="M251 164 c0 -11 3 -14 6 -6 3 7 2 16 -1 19 -3 4 -6 -2 -5 -13z"/>
</g>
</svg>
